sfk_cyclingleg_states
version=1
nRows=6
nColumns=53
inDegrees=yes

# SIMM Motion File Header:
name sfk_cyclingleg_states
datacolumns 53
datarows 6
otherdata 1
range 0.00000000 0.01765467
endheader
time	/jointset/bb/crank_angle/value	/jointset/bb/crank_angle/speed	/jointset/spindle/pedal_angle_r/value	/jointset/spindle/pedal_angle_r/speed	/jointset/ground_pelvis/pelvis_tilt/value	/jointset/ground_pelvis/pelvis_tilt/speed	/jointset/ground_pelvis/pelvis_list/value	/jointset/ground_pelvis/pelvis_list/speed	/jointset/ground_pelvis/pelvis_rotation/value	/jointset/ground_pelvis/pelvis_rotation/speed	/jointset/ground_pelvis/pelvis_tx/value	/jointset/ground_pelvis/pelvis_tx/speed	/jointset/ground_pelvis/pelvis_ty/value	/jointset/ground_pelvis/pelvis_ty/speed	/jointset/ground_pelvis/pelvis_tz/value	/jointset/ground_pelvis/pelvis_tz/speed	/jointset/hip_r/hip_angle_r/value	/jointset/hip_r/hip_angle_r/speed	/jointset/hip_r/hip_adduction_r/value	/jointset/hip_r/hip_adduction_r/speed	/jointset/hip_r/hip_rotation_r/value	/jointset/hip_r/hip_rotation_r/speed	/jointset/knee_r/knee_angle_r/value	/jointset/knee_r/knee_angle_r/speed	/jointset/knee_r/tib_tx_r/value	/jointset/knee_r/tib_tx_r/speed	/jointset/knee_r/tib_ty_r/value	/jointset/knee_r/tib_ty_r/speed	/jointset/tib_pat_r/pat_angle_r/value	/jointset/tib_pat_r/pat_angle_r/speed	/jointset/tib_pat_r/pat_tx_r/value	/jointset/tib_pat_r/pat_tx_r/speed	/jointset/tib_pat_r/pat_ty_r/value	/jointset/tib_pat_r/pat_ty_r/speed	/jointset/ankle_r/ankle_angle_r/value	/jointset/ankle_r/ankle_angle_r/speed	/jointset/subtalar_r/subtalar_angle_r/value	/jointset/subtalar_r/subtalar_angle_r/speed	/jointset/mtp_r/mtp_angle_r/value	/jointset/mtp_r/mtp_angle_r/speed	/forceset/bifemlh_r/activation	/forceset/bifemlh_r/fiber_length	/forceset/bifemsh_r/activation	/forceset/bifemsh_r/fiber_length	/forceset/glut_max2_r/activation	/forceset/glut_max2_r/fiber_length	/forceset/vas_int_r/activation	/forceset/vas_int_r/fiber_length	/forceset/med_gas_r/activation	/forceset/med_gas_r/fiber_length	/forceset/tib_ant_r/activation	/forceset/tib_ant_r/fiber_length
      0.00000000	    -10.13487855	   -480.13863232	      3.93720119	    611.57141349	      0.00000000	      0.00000000	     -0.00000000	      0.00000000	     -0.00000000	      0.00000000	     -0.00000000	      0.00000000	     -0.00000000	     -0.00000000	      0.00000000	     -0.00000000	     81.60187645	     31.46318966	      4.08770574	      1.42736615	     -3.71686533	     14.49945711	   -114.53781868	    142.62177431	     -0.00182076	      0.04714384	     -0.49428903	      0.04647078	     17.64997176	     -0.13967557	      0.02216583	      0.06926674	     -0.02416741	      0.01114607	     27.42240000	    -43.94091677	     -0.00000000	      0.00000000	     -0.00000000	     -0.00000000	      0.05000000	      0.13724584	      0.05000000	      0.14494627	      0.05000000	      0.15454916	      0.05000000	      0.16013391	      0.05000000	      0.13016114	      0.05000000	      0.11106886
      0.00116067	    -10.69216092	   -480.13863232	      4.64678505	    611.14219971	      0.00000000	      0.00000000	      0.00000000	      0.00000000	      0.00000000	      0.00000000	      0.00000000	      0.00000000	     -0.00000000	     -0.00000000	     -0.00000000	     -0.00000000	     81.63709710	     29.22611814	      4.08937474	      1.44851649	     -3.69993054	     14.68108259	   -114.37101569	    144.80103642	     -0.00176574	      0.04765649	     -0.49423466	      0.04722548	     17.64980295	     -0.15126152	      0.02224677	      0.07021004	     -0.02415438	      0.01128947	     27.37117405	    -44.32607929	      0.00000000	      0.00000000	     -0.00000000	      0.00000000	      0.04917358	      0.13724683	      0.04917358	      0.14494895	      0.04917358	      0.15455034	      0.04917358	      0.16012073	      0.04917358	      0.13016332	      0.04917358	      0.11107050
      0.00544793	    -12.75063798	   -480.13863232	      7.26343814	    609.51267704	      0.00000000	      0.00000000	      0.00000000	      0.00000000	      0.00000000	      0.00000000	      0.00000000	      0.00000000	     -0.00000000	     -0.00000000	     -0.00000000	     -0.00000000	     81.74461616	     20.92161382	      4.09574849	      1.52416601	     -3.63559285	     15.32543812	   -113.73317701	    152.71385997	     -0.00155756	      0.04942502	     -0.49402626	      0.04998295	     17.64905850	     -0.19670238	      0.02255508	      0.07358438	     -0.02410488	      0.01179601	     27.17830435	    -45.61153999	      0.00000000	      0.00000000	      0.00000000	      0.00000000	      0.04625167	      0.13726959	      0.04625167	      0.14500216	      0.04625167	      0.15457365	      0.04625167	      0.15992939	      0.04625167	      0.13021171	      0.04625167	      0.11111712
      0.00973518	    -14.80911503	   -480.13863232	      9.87297608	    607.82552889	      0.00000000	      0.00000000	      0.00000000	      0.00000000	      0.00000000	     -0.00000000	      0.00000000	      0.00000000	     -0.00000000	     -0.00000000	     -0.00000000	     -0.00000000	     81.81642285	     12.57029829	      4.10243774	      1.59563473	     -3.56858158	     15.92839846	   -113.06188253	    160.40732360	     -0.00134223	      0.05099462	     -0.49380615	      0.05269069	     17.64811079	     -0.24601272	      0.02287747	      0.07678352	     -0.02405329	      0.01226495	     26.98038264	    -46.68346034	      0.00000000	      0.00000000	      0.00000000	      0.00000000	      0.04352314	      0.13732658	      0.04352314	      0.14510098	      0.04352314	      0.15461865	      0.04352314	      0.15962765	      0.04352314	      0.13030368	      0.04352314	      0.11126242
      0.01493365	    -17.30509924	   -480.13863232	     13.02729453	    605.72346324	      0.00000000	      0.00000000	      0.00000000	      0.00000000	     -0.00000000	     -0.00000000	      0.00000000	      0.00000000	     -0.00000000	     -0.00000000	     -0.00000000	     -0.00000000	     81.85537853	      2.41470613	      4.11094496	      1.67617568	     -3.48399407	     16.60502850	   -112.20440019	    169.43558056	     -0.00107276	      0.05262854	     -0.49352385	      0.05590319	     17.64666666	     -0.31034980	      0.02328621	      0.08042491	     -0.02398817	      0.01278097	     26.73491845	    -47.70329787	      0.00000000	      0.00000000	      0.00000000	      0.00000000	      0.04045259	      0.13744149	      0.04045259	      0.14524564	      0.04045259	      0.15468268	      0.04045259	      0.15929654	      0.04045259	      0.13043798	      0.04045259	      0.11153145
      0.01765467	    -18.61156870	   -480.13863232	     14.67396537	    604.60607238	      0.00000000	      0.00000000	      0.00000000	      0.00000000	     -0.00000000	     -0.00000000	      0.00000000	      0.00000000	     -0.00000000	     -0.00000000	     -0.00000000	     -0.00000000	     81.85471552	     -2.90131487	      4.11555981	      1.71547861	     -3.43835759	     16.93593181	   -111.73709256	    174.02813291	     -0.00092854	      0.05336574	     -0.49336949	      0.05755226	     17.64577430	     -0.34572834	      0.02350751	      0.08222652	     -0.02395305	      0.01302732	     26.60453407	    -48.11802036	      0.00000000	      0.00000000	      0.00000000	      0.00000000	      0.03894178	      0.13751658	      0.03894178	      0.14532910	      0.03894178	      0.15471445	      0.03894178	      0.15906365	      0.03894178	      0.13050853	      0.03894178	      0.11168655
